Coordinates
version=1
nRows=16
nColumns=22
inDegrees=yes

Units are S.I. units (second, meters, Newtons, ...)
If the header above contains a line with 'inDegrees', this indicates whether rotational values are in degrees (yes) or radians (no).

endheader
time	pelvis_tilt	pelvis_list	pelvis_rotation	pelvis_tx	pelvis_ty	pelvis_tz	hip_flexion_r	hip_adduction_r	hip_rotation_r	knee_angle_r	ankle_angle_r	subtalar_angle_r	hip_flexion_l	hip_adduction_l	hip_rotation_l	knee_angle_l	ankle_angle_l	subtalar_angle_l	lumbar_extension	lumbar_bending	lumbar_rotation
      5.44000000	     -1.35143830	     -2.30471248	    -95.81840404	      0.95142908	      1.06346566	      0.35975400	     -0.80009329	     13.08995961	    -10.48173724	     -9.22692173	     11.10446480	    -13.46876430	     14.85239023	     -7.42847445	      3.79048394	    -61.76531745	      1.65521150	      6.88678713	     -5.14029655	      1.70541252	     -2.77522971
      5.45000000	     -1.36501298	     -2.22213540	    -97.30185793	      0.94835801	      1.06364517	      0.36650615	     -1.43134749	     13.13333584	     -8.97625878	     -9.04945265	     11.11285297	    -13.35923916	     15.55457339	     -7.60033349	      3.80944870	    -60.76864019	      2.69438357	      5.71383823	     -5.11231138	      1.61069602	     -2.31204665
      5.46000000	     -1.36921208	     -2.12790418	    -98.80518278	      0.94532773	      1.06379019	      0.37308117	     -2.01503788	     13.13521831	     -7.45599069	     -8.92885879	     11.14409753	    -13.27464599	     16.22283385	     -7.74478786	      3.82191302	    -59.63933879	      3.68259814	      4.66048805	     -5.08113997	      1.52203322	     -1.84188017
      5.47000000	     -1.35616263	     -2.01553807	   -100.32033208	      0.94235903	      1.06389206	      0.37946060	     -2.53286821	     13.09308000	     -5.93265664	     -8.87584524	     11.18797445	    -13.20669285	     16.87141940	     -7.84922107	      3.83576208	    -58.38766138	      4.56804291	      3.75304333	     -5.04083757	      1.43274625	     -1.37507814
      5.48000000	     -1.32446934	     -1.87648559	   -101.83182170	      0.93948180	      1.06392782	      0.38566184	     -2.98042352	     13.01253232	     -4.40557555	     -8.87591548	     11.27591794	    -13.14731605	     17.51980407	     -7.91268581	      3.86164674	    -57.03317956	      5.29946568	      3.01080546	     -4.97882731	      1.34607365	     -0.92441846
      5.49000000	     -1.26075545	     -1.75268759	   -103.31833934	      0.93672907	      1.06395763	      0.39175789	     -3.38651674	     12.87273435	     -2.98825427	     -8.94384502	     11.35626298	    -13.11118406	     18.11496561	     -7.90469014	      3.90719853	    -55.56597930	      5.95873477	      2.25496014	     -4.92829556	      1.23845511	     -0.50211584
      5.50000000	     -1.17670545	     -1.61629888	   -104.77482439	      0.93409746	      1.06392890	      0.39775709	     -3.74090036	     12.69874279	     -1.60174021	     -9.04842299	     11.47310060	    -13.08190238	     18.70527730	     -7.85015766	      3.97467041	    -54.02270818	      6.47832488	      1.65997634	     -4.85888445	      1.13108717	     -0.11789701
      5.51000000	     -1.07434367	     -1.48797531	   -106.18731458	      0.93158416	      1.06386370	      0.40372173	     -4.06832018	     12.49088875	     -0.29367919	     -9.18201665	     11.61411150	    -13.06043008	     19.26550994	     -7.74538556	      4.06970222	    -52.40556264	      6.93049135	      1.18352670	     -4.78584243	      1.01615969	      0.23182337
      5.52000000	     -0.96351010	     -1.36598773	   -107.55474438	      0.92917136	      1.06375355	      0.40968283	     -4.37544391	     12.26277751	      0.95271673	     -9.33574169	     11.78368822	    -13.03294198	     19.80044545	     -7.60833408	      4.18068564	    -50.73038412	      7.32953283	      0.87044915	     -4.70694425	      0.90575090	      0.53839691
      5.53000000	     -0.83082137	     -1.23524121	   -108.87250535	      0.92685575	      1.06356489	      0.41566168	     -4.63078931	     12.00747480	      2.10185052	     -9.52824612	     11.97907918	    -12.98630951	     20.32998046	     -7.43146643	      4.30402609	    -49.00504635	      7.72500948	      0.74697536	     -4.59705821	      0.78787276	      0.80589834
      5.54000000	     -0.71048212	     -1.13922273	   -110.14437630	      0.92460043	      1.06337537	      0.42168961	     -4.91959609	     11.74760836	      3.22051091	     -9.71102034	     12.18941945	    -12.93864823	     20.79499547	     -7.24333824	      4.42454324	    -47.22908777	      8.06988172	      0.71445660	     -4.51557193	      0.68207293	      1.03939489
      5.55000000	     -0.60017314	     -1.09092273	   -111.37526931	      0.92239630	      1.06320642	      0.42779398	     -5.26090451	     11.47232847	      4.30692635	     -9.87397519	     12.41889278	    -12.88425901	     21.17673504	     -7.03161163	      4.54576520	    -45.40737080	      8.36746359	      0.85231546	     -4.47302135	      0.57760279	      1.25467816
      5.56000000	     -0.46677500	     -1.04003588	   -112.55771654	      0.92026701	      1.06296594	      0.43392731	     -5.55003641	     11.16987110	      5.31735443	    -10.08598180	     12.66997392	    -12.82056641	     21.54673903	     -6.78480444	      4.65667854	    -43.54916181	      8.60648822	      1.16149846	     -4.40863987	      0.45712390	      1.43757559
      5.57000000	     -0.33353585	     -1.02847547	   -113.69146503	      0.91818611	      1.06272421	      0.44011633	     -5.85815289	     10.84760338	      6.28470494	    -10.31292396	     12.92756285	    -12.75807431	     21.85194686	     -6.51707027	      4.74165741	    -41.65799696	      8.77595699	      1.67778071	     -4.37516204	      0.32656620	      1.56808160
      5.58000000	     -0.19055938	     -1.03037439	   -114.77976201	      0.91614130	      1.06243360	      0.44634471	     -6.13997072	     10.50776531	      7.18120611	    -10.58103251	     13.20901592	    -12.70819603	     22.12316457	     -6.22685373	      4.80947700	    -39.74192025	      8.83740809	      2.29882421	     -4.34043520	      0.18024314	      1.68904360
      5.59000000	     -0.05055127	     -1.05488083	   -115.82266135	      0.91410751	      1.06210895	      0.45261050	     -6.41469567	     10.15980250	      8.01283718	    -10.88152044	     13.50431429	    -12.67449250	     22.34784023	     -5.93043540	      4.84549130	    -37.81002257	      8.79424207	      3.00524225	     -4.32011941	      0.02638417	      1.78185964
